<svg xmlns="http://www.w3.org/2000/svg" viewBox="0 0 500 500"><g id="freepik--background-simple--inject-297"><path d="M444.38,102.23q-2.91-3.66-6-7.14c-27.69-30.83-70.43-48.62-110.75-53.74A232,232,0,0,0,274.34,41C158.29,53.08,124.91,150.5,90,179.3S1.92,256.37,17.51,340,104.8,494.52,223,483.11s118.64-65.35,181.51-94c41.6-19,66.37-67,75.86-109.55C493.25,221.56,482.34,150.1,444.38,102.23Z" style="fill:#B8FF5C"></path><path d="M444.38,102.23q-2.91-3.66-6-7.14c-27.69-30.83-70.43-48.62-110.75-53.74A232,232,0,0,0,274.34,41C158.29,53.08,124.91,150.5,90,179.3S1.92,256.37,17.51,340,104.8,494.52,223,483.11s118.64-65.35,181.51-94c41.6-19,66.37-67,75.86-109.55C493.25,221.56,482.34,150.1,444.38,102.23Z" style="fill:#fff;opacity:0.7000000000000001"></path></g><g id="freepik--Clouds--inject-297"><path d="M427.63,341.72c-.23-.2-.47-.42-.71-.65-15-14.4-18.09-37-38.2-46.75-18.82-9.09-42.6-8.47-57.54,7.52-7.8,8.35-8.24,23.74-16.51,30.63-3.77,3.15-6.29-7.54-19.49-3.14s-13.83,18.23-18.85,21.37S270,339.39,255,340s-15.71,15.71-21.37,15.08-12.57-7.54-20.11-4.4-18.86,12.57-32.06,13.2a146.32,146.32,0,0,0-23.88,3.15H491.92c.38,0-4.22-13.37-4.61-14.17-3.65-7.6-9.39-17.82-18.7-18.91C453.9,332.26,441.23,353.63,427.63,341.72Z" style="fill:none;stroke:#263238;stroke-miterlimit:10"></path><path d="M315.5,345.81c-.32,1.19-.62,2.42-1,3.68-.45,1.69-1.23,3.54-2.88,4.11a5.9,5.9,0,0,1-3.32-.17c-4.53-1.14-8.07-2.7-12.52-.84-7.54,3.14-6.29,7.54-11.31,8.17s-5.66-1.89-13.2-.63-11.32,5-11.32,5" style="fill:none;stroke:#263238;stroke-miterlimit:10"></path><path d="M390.8,355.65c-6.52-.55-14.22-1.49-18.93-3.06-10.12-3.37-16.1-13.46-25.31-18.66-6-3.39-14.12-4.61-20.66-2.11a14.36,14.36,0,0,0-8.89,9.06" style="fill:none;stroke:#263238;stroke-miterlimit:10"></path><path d="M402.67,356.36s-2.43-.07-6-.29" style="fill:none;stroke:#263238;stroke-miterlimit:10"></path><path d="M236.32,239.81l-.56-.51c-11.93-11.45-14.38-29.44-30.38-37.17-15-7.23-33.86-6.74-45.74,6-6.2,6.63-6.55,18.87-13.13,24.35-3,2.5-5-6-15.49-2.5s-11,14.5-15,17-5-9-17-8.49-12.49,12.49-17,12-10-6-16-3.5-15,10-25.49,10.5a116.49,116.49,0,0,0-19,2.5H287.43c.31,0-3.36-10.63-3.66-11.27-2.9-6-7.46-14.16-14.87-15C257.21,232.29,247.13,249.28,236.32,239.81Z" style="fill:none;stroke:#263238;stroke-miterlimit:10"></path><path d="M147.17,243.06c-.24.95-.49,1.93-.76,2.93-.37,1.34-1,2.82-2.29,3.27a4.68,4.68,0,0,1-2.64-.14c-3.6-.9-6.42-2.14-10-.67-6,2.5-5,6-9,6.5s-4.5-1.5-10.5-.5a17.38,17.38,0,0,0-9,4" style="fill:none;stroke:#263238;stroke-miterlimit:10"></path><path d="M207,250.89c-5.18-.44-11.3-1.19-15-2.44-8.05-2.68-12.8-10.69-20.12-14.83-4.77-2.7-11.22-3.67-16.43-1.68a11.38,11.38,0,0,0-7.06,7.21" style="fill:none;stroke:#263238;stroke-miterlimit:10"></path><path d="M216.47,251.45s-1.92-.06-4.77-.23" style="fill:none;stroke:#263238;stroke-miterlimit:10"></path><path d="M214.34,41.11a2.13,2.13,0,0,1-.22-.21c-4.81-4.61-5.79-11.84-12.23-15-6-2.91-13.63-2.71-18.41,2.41-2.5,2.67-2.63,7.59-5.28,9.8-1.21,1-2-2.41-6.24-1s-4.42,5.83-6,6.84-2-3.63-6.84-3.42-5,5-6.84,4.82-4-2.41-6.44-1.4-6,4-10.25,4.22a47.24,47.24,0,0,0-7.65,1h107c.12,0-1.36-4.27-1.48-4.53-1.17-2.43-3-5.7-6-6C222.75,38.08,218.69,44.92,214.34,41.11Z" style="fill:none;stroke:#263238;stroke-miterlimit:10"></path><path d="M178.46,42.42c-.1.38-.2.78-.31,1.18a1.72,1.72,0,0,1-.92,1.31,1.92,1.92,0,0,1-1.06,0c-1.45-.37-2.58-.86-4-.27-2.41,1-2,2.41-3.62,2.61s-1.81-.6-4.22-.2a6.93,6.93,0,0,0-3.62,1.61" style="fill:none;stroke:#263238;stroke-miterlimit:10"></path><path d="M202.56,45.57a30.7,30.7,0,0,1-6.06-1c-3.24-1.08-5.15-4.31-8.1-6a8.11,8.11,0,0,0-6.61-.68,4.59,4.59,0,0,0-2.84,2.9" style="fill:none;stroke:#263238;stroke-miterlimit:10"></path><path d="M206.36,45.8s-.78,0-1.93-.1" style="fill:none;stroke:#263238;stroke-miterlimit:10"></path><path d="M427.75,450.57l-.23-.21c-4.8-4.6-5.78-11.84-12.22-15-6-2.91-13.63-2.71-18.41,2.41-2.5,2.67-2.64,7.6-5.29,9.8-1.2,1-2-2.41-6.23-1s-4.43,5.83-6,6.84-2-3.62-6.84-3.42-5,5-6.83,4.82-4-2.41-6.44-1.4-6,4-10.26,4.22a47.22,47.22,0,0,0-7.64,1h107c.12,0-1.35-4.27-1.47-4.53-1.17-2.43-3-5.7-6-6.05C436.16,447.54,432.1,454.38,427.75,450.57Z" style="fill:none;stroke:#263238;stroke-miterlimit:10"></path><path d="M391.87,451.88c-.1.38-.2.78-.31,1.18a1.74,1.74,0,0,1-.92,1.31,1.92,1.92,0,0,1-1.06-.05c-1.45-.37-2.59-.86-4-.27-2.42,1-2,2.41-3.62,2.61s-1.81-.6-4.23-.2a7,7,0,0,0-3.62,1.61" style="fill:none;stroke:#263238;stroke-miterlimit:10"></path><path d="M416,455a30.58,30.58,0,0,1-6.06-1c-3.24-1.08-5.16-4.31-8.1-6a8.11,8.11,0,0,0-6.61-.68,4.61,4.61,0,0,0-2.85,2.9" style="fill:none;stroke:#263238;stroke-miterlimit:10"></path><path d="M419.76,455.26s-.77,0-1.92-.1" style="fill:none;stroke:#263238;stroke-miterlimit:10"></path></g><g id="freepik--clock-2--inject-297"><path d="M355.36,139.66c4.95-14.07,10.07-28.45,19.56-40,11.26-13.66,27.57-22,43.39-29.92L445,56.42a59.71,59.71,0,0,1,12-5c1.15-.29,2.52-.46,3.41.33a3.3,3.3,0,0,1,.9,2.1c.46,3.58-1.18,7.18-3.58,9.88s-5.51,4.65-8.57,6.57l-34,21.33L439.93,84c4.58-1.41,8.88-3.9,13.42-5.48,2.11-.73,5.5-2.28,7.78-1.65,6.8,1.89-4.67,13.5-6.85,15.37a65,65,0,0,1-13.77,8.84c-9.15,4.45-19,7.14-28.86,9.82l37.49-4.37a36,36,0,0,1,8.85-.31c1.83.23,4,1.13,4.19,3a4,4,0,0,1-.5,2.12c-1.76,3.57-5.29,5.89-8.82,7.71-11.17,5.76-23.72,8.16-36.08,10.49a240.85,240.85,0,0,1,30,6.41c6.23,1.78,2.18,5.66-1.58,7.25A45.12,45.12,0,0,1,426,146.74c-6.06-.19-14.65-.82-20.17-3.48a198.79,198.79,0,0,1,20.53,11.43c2.18,1.38,4.62,3.5,4,6-.5,2-2.7,3-4.68,3.51a39.68,39.68,0,0,1-26.66-2.13c4,2.89,8.16,6.09,9.65,10.77s-1.43,11-6.34,10.89c-2.56-.05-4.76-1.72-6.75-3.32l-13.78-11a125.68,125.68,0,0,1,11.56,18c.72,1.35,1.38,3.12.41,4.31a3.27,3.27,0,0,1-2.18,1c-5.75.68-10.29-4.54-13.69-9.22,0,2.6,1.27,5,1.69,7.6s-.56,5.82-3.12,6.33a4.48,4.48,0,0,1-4.38-2.23,13.4,13.4,0,0,1-1.59-4.94q-3.09-16.66-7.79-33C361,151.11,359,144.92,355.36,139.66Z" style="fill:#B8FF5C;stroke:#263238;stroke-miterlimit:10"></path><path d="M400.6,107.76c4.65-1.72,9.24-3.5,13.82-5.32s9.13-3.7,13.62-5.69,9-4,13.44-6.11,8.86-4.32,13.33-6.46A124.15,124.15,0,0,1,442.19,92c-2.15,1.23-4.39,2.3-6.59,3.43s-4.49,2.13-6.76,3.12c-4.55,2-9.18,3.76-13.89,5.32A111.28,111.28,0,0,1,400.6,107.76Z" style="fill:#263238"></path><path d="M401,93.2c4-2.84,8.18-5.52,12.33-8.17s8.35-5.21,12.54-7.79,8.42-5.08,12.65-7.6,8.47-5,12.58-7.69a98.63,98.63,0,0,1-11.75,9c-4.07,2.79-8.25,5.4-12.44,8s-8.47,5-12.78,7.42S405.44,91.08,401,93.2Z" style="fill:#263238"></path><path d="M403.48,122.91c8.35-1.67,16.71-3,25-4.52,4.17-.74,8.32-1.52,12.45-2.39s8.25-1.8,12.33-3a60.86,60.86,0,0,1-12,4.54c-2,.62-4.12,1.08-6.2,1.58s-4.17.89-6.26,1.26c-4.2.74-8.41,1.36-12.64,1.79S407.74,122.89,403.48,122.91Z" style="fill:#263238"></path><path d="M398.05,135.05c3.64.35,7.24.82,10.83,1.32l10.74,1.56c3.58.57,7.15,1.06,10.73,1.57s7.15,1,10.79,1.14a47.69,47.69,0,0,1-10.94.41c-3.65-.19-7.27-.61-10.87-1.14s-7.18-1.2-10.73-2A105.37,105.37,0,0,1,398.05,135.05Z" style="fill:#263238"></path><path d="M388.3,147.29c2.49,1.13,4.92,2.31,7.34,3.48s4.83,2.35,7.26,3.46,4.88,2.19,7.35,3.24,5,1.92,7.57,2.81a33.3,33.3,0,0,1-8.09-1.34,58.05,58.05,0,0,1-7.67-2.89,70.29,70.29,0,0,1-7.18-3.92A47.59,47.59,0,0,1,388.3,147.29Z" style="fill:#263238"></path><path d="M380.85,157.64a64.89,64.89,0,0,1,5.53,3.78c1.79,1.32,3.5,2.73,5.21,4.14s3.36,2.88,5,4.38,3.21,3,4.86,4.56a29.83,29.83,0,0,1-5.84-3.34c-1.84-1.27-3.58-2.66-5.3-4.07s-3.35-2.92-4.93-4.49A50.77,50.77,0,0,1,380.85,157.64Z" style="fill:#263238"></path><path d="M373.62,169.16a51.09,51.09,0,0,1,3.85,4.1q1.81,2.13,3.5,4.32t3.31,4.45l3.27,4.53a19.57,19.57,0,0,1-4.46-3.52,42.55,42.55,0,0,1-3.7-4.24,54,54,0,0,1-3.18-4.62A33.52,33.52,0,0,1,373.62,169.16Z" style="fill:#263238"></path><path d="M404.4,142.26c.77-3.33-8.42-4.25-8.42-4.25A75,75,0,0,0,404,136c4-1.29,12.45-4.22,11.57-8.84s-19-.65-19-.65,6.55-2.93,13.64-6.84c23.62-13-12.73-7.69-12.73-7.69s12.53-7.2,17.41-10.75c15.4-11.17-20.61-1.67-20.61-1.67s15.31-10.37,13.09-11.88-9.54.6-9.54.6S419,72.06,419.91,69l-1.6.79C402.49,77.72,386.18,86,374.92,99.7c-9.49,11.51-14.61,25.89-19.56,40,3.63,5.26,5.62,11.45,7.38,17.59.2.69.38,1.38.57,2.06l5.44.09s8.22,6.15,11.83,4.4-2.41-11.24-2.41-11.24,12.16,9.13,14.66,6-7.78-11.28-7.78-11.28a60.31,60.31,0,0,0,9.64.29C399.14,147.25,403.62,145.6,404.4,142.26Z" style="fill:#fff;stroke:#263238;stroke-miterlimit:10"></path><path d="M381.69,105.23s6.59,1,6.38,3-8.54,4.63-8.54,4.63,10.25,2.26,9.4,6.23-11,4.29-11,4.29,5,5.26,3.39,8.37-7.66,1.85-7.66,1.85,3.22,6.4,1,8.62-8.13-.66-8.13-.66" style="fill:#fff;stroke:#263238;stroke-miterlimit:10"></path><path d="M206.35,140c-5-14-10.16-28.42-19.68-39.9C175.37,86.51,159,78.25,143.18,70.36L116.5,57.08a60,60,0,0,0-12-4.94c-1.15-.28-2.52-.45-3.4.34a3.32,3.32,0,0,0-.9,2.1c-.45,3.59,1.2,7.18,3.61,9.87A38.31,38.31,0,0,0,112.35,71l34.08,21.22-24.82-7.58c-4.59-1.4-8.89-3.87-13.44-5.44-2.11-.73-5.51-2.26-7.78-1.62-6.79,1.91,4.7,13.49,6.9,15.34a64.45,64.45,0,0,0,13.79,8.8c9.17,4.42,19.06,7.09,28.89,9.73l-37.5-4.25a36.45,36.45,0,0,0-8.85-.29c-1.83.25-4,1.15-4.18,3A3.81,3.81,0,0,0,100,112c1.76,3.56,5.3,5.87,8.83,7.68,11.2,5.72,23.76,8.09,36.12,10.38a240.83,240.83,0,0,0-29.94,6.5c-6.22,1.8-2.16,5.67,1.6,7.25a45.3,45.3,0,0,0,19.13,3.51c6.06-.21,14.65-.87,20.17-3.55a199.9,199.9,0,0,0-20.51,11.5c-2.17,1.39-4.6,3.51-4,6,.5,2,2.71,3,4.68,3.49a39.6,39.6,0,0,0,26.65-2.21c-3.95,2.91-8.13,6.13-9.61,10.8s1.47,11,6.37,10.87c2.56-.05,4.76-1.73,6.75-3.33L180,169.85a126.43,126.43,0,0,0-11.51,18c-.71,1.36-1.37,3.13-.39,4.32a3.22,3.22,0,0,0,2.19,1c5.74.66,10.27-4.57,13.66-9.26,0,2.61-1.27,5-1.68,7.61s.58,5.82,3.14,6.32a4.51,4.51,0,0,0,4.38-2.24,13.48,13.48,0,0,0,1.57-5q3-16.68,7.69-33C200.77,151.51,202.73,145.31,206.35,140Z" style="fill:#B8FF5C;stroke:#263238;stroke-miterlimit:10"></path><path d="M161,108.28q-7-2.55-13.83-5.28c-4.58-1.83-9.14-3.67-13.64-5.65s-9-4-13.46-6.06-8.87-4.3-13.35-6.42a125.2,125.2,0,0,0,12.64,7.81c2.16,1.22,4.4,2.29,6.61,3.41s4.49,2.11,6.76,3.1c4.56,2,9.19,3.73,13.91,5.27A111.7,111.7,0,0,0,161,108.28Z" style="fill:#263238"></path><path d="M160.59,93.72c-4.05-2.82-8.19-5.5-12.35-8.13s-8.36-5.19-12.56-7.75-8.43-5.06-12.67-7.56-8.49-5-12.61-7.66a97.66,97.66,0,0,0,11.78,9c4.08,2.78,8.26,5.37,12.47,8s8.48,5,12.8,7.38S156.13,91.61,160.59,93.72Z" style="fill:#263238"></path><path d="M158.18,123.44c-8.36-1.65-16.72-2.94-25-4.45-4.16-.72-8.32-1.49-12.45-2.35s-8.25-1.77-12.34-3a60.84,60.84,0,0,0,12,4.51c2.05.61,4.13,1.06,6.2,1.56s4.18.87,6.27,1.24c4.2.73,8.41,1.33,12.65,1.75S153.92,123.44,158.18,123.44Z" style="fill:#263238"></path><path d="M163.64,135.57c-3.63.35-7.23.83-10.82,1.35l-10.74,1.59c-3.57.58-7.14,1.08-10.72,1.6s-7.15,1-10.79,1.17a47.14,47.14,0,0,0,10.94.38c3.65-.2,7.27-.63,10.87-1.17s7.18-1.22,10.73-2S160.18,136.73,163.64,135.57Z" style="fill:#263238"></path><path d="M173.43,147.77c-2.48,1.14-4.91,2.33-7.32,3.51s-4.83,2.36-7.26,3.48S154,157,151.52,158s-5,1.94-7.57,2.84a33.1,33.1,0,0,0,8.08-1.37,58.2,58.2,0,0,0,7.67-2.92,69,69,0,0,0,7.16-3.93A47.92,47.92,0,0,0,173.43,147.77Z" style="fill:#263238"></path><path d="M180.92,158.1a62.84,62.84,0,0,0-5.53,3.8c-1.78,1.33-3.49,2.74-5.19,4.15s-3.35,2.89-5,4.4-3.21,3-4.86,4.58a30.58,30.58,0,0,0,5.83-3.36c1.84-1.28,3.58-2.67,5.29-4.09s3.34-2.93,4.92-4.51A50.79,50.79,0,0,0,180.92,158.1Z" style="fill:#263238"></path><path d="M188.18,169.6a49.45,49.45,0,0,0-3.84,4.11c-1.2,1.42-2.37,2.86-3.49,4.33s-2.21,3-3.29,4.46L174.3,187a19.56,19.56,0,0,0,4.45-3.53,43.71,43.71,0,0,0,3.69-4.25,51.93,51.93,0,0,0,3.16-4.64A33.47,33.47,0,0,0,188.18,169.6Z" style="fill:#263238"></path><path d="M157.32,142.8c-.79-3.34,8.4-4.28,8.4-4.28a75.38,75.38,0,0,1-8.07-2c-4-1.27-12.45-4.18-11.59-8.81s19-.7,19-.7-6.55-2.91-13.66-6.8c-23.65-12.93,12.72-7.72,12.72-7.72s-12.55-7.17-17.44-10.7c-15.44-11.13,20.6-1.73,20.6-1.73s-15.35-10.33-13.13-11.85,9.54.58,9.54.58-21.2-16.12-22.1-19.18l1.59.79c15.86,7.89,32.19,16.15,43.49,29.78,9.52,11.48,14.69,25.85,19.68,39.9-3.62,5.27-5.58,11.47-7.33,17.62-.2.68-.37,1.37-.56,2.06l-5.45.11s-8.19,6.17-11.81,4.43S183.58,153,183.58,153s-12.13,9.16-14.65,6,7.75-11.31,7.75-11.31a60.54,60.54,0,0,1-9.64.33C162.59,147.77,158.11,146.13,157.32,142.8Z" style="fill:#fff;stroke:#263238;stroke-miterlimit:10"></path><path d="M179.91,105.69s-6.59,1-6.37,3,8.55,4.59,8.55,4.59-10.23,2.3-9.37,6.26,11,4.26,11,4.26-5,5.27-3.36,8.38S188,134,188,134s-3.2,6.41-1,8.62,8.14-.68,8.14-.68" style="fill:#fff;stroke:#263238;stroke-miterlimit:10"></path><path d="M239.12,250.64,227,276.52a1.68,1.68,0,0,0,1.52,2.39h0a1.69,1.69,0,0,0,1.35-.69l16.25-22.34Z" style="fill:#B8FF5C;stroke:#263238;stroke-miterlimit:10"></path><path d="M322.77,250.64l12.14,25.88a1.67,1.67,0,0,1-1.51,2.39h0a1.7,1.7,0,0,1-1.36-.69L315.8,255.88Z" style="fill:#B8FF5C;stroke:#263238;stroke-miterlimit:10"></path><rect x="236.59" y="67.8" width="3.84" height="33.85" transform="translate(-13.07 112.55) rotate(-25.87)" style="fill:#263238;stroke:#263238;stroke-miterlimit:10"></rect><path d="M272,80.67,214.9,108.38l-6-11.9A9.35,9.35,0,0,1,213.25,84l40.31-19.55a9.36,9.36,0,0,1,12.5,4.34Z" style="fill:#B8FF5C;stroke:#263238;stroke-miterlimit:10"></path><rect x="320.3" y="67.8" width="3.84" height="33.85" transform="translate(575.19 301.54) rotate(-154.13)" style="fill:#263238;stroke:#263238;stroke-miterlimit:10"></rect><path d="M289.6,80.06l57.15,27.7,5.06-11.28A9.36,9.36,0,0,0,347.47,84L307.16,64.43a9.35,9.35,0,0,0-12.49,4.34Z" style="fill:#B8FF5C;stroke:#263238;stroke-miterlimit:10"></path><rect x="280.31" y="76.89" width="1.42" height="17.49" style="fill:#263238;stroke:#263238;stroke-miterlimit:10"></rect><rect x="275.5" y="72.9" width="10.74" height="4.91" rx="1.91" style="fill:#263238;stroke:#263238;stroke-miterlimit:10"></rect><circle cx="280.87" cy="178.72" r="87.09" style="fill:#263238;stroke:#263238;stroke-miterlimit:10"></circle><circle cx="281.64" cy="177.95" r="75.09" transform="translate(61.8 428.26) rotate(-81)" style="fill:#fff;stroke:#263238;stroke-miterlimit:10"></circle><circle cx="280.87" cy="178.72" r="74.32" transform="translate(44.1 412.75) rotate(-77.14)" style="fill:#fff;stroke:#263238;stroke-miterlimit:10"></circle><polygon points="279.46 176.1 280.1 139.9 281.86 175.78 279.46 176.1" style="fill:#B8FF5C;stroke:#263238;stroke-miterlimit:10"></polygon><polygon points="279.16 180.61 226.47 209.02 279.39 176.93 279.16 180.61" style="fill:#B8FF5C;stroke:#263238;stroke-miterlimit:10"></polygon><path d="M284.09,178.72a3.23,3.23,0,1,1-3.22-3.22A3.23,3.23,0,0,1,284.09,178.72Z" style="fill:#263238;stroke:#263238;stroke-miterlimit:10"></path><line x1="353.54" y1="178.72" x2="349.24" y2="178.72" style="fill:none;stroke:#263238;stroke-miterlimit:10"></line><line x1="212.5" y1="178.72" x2="208.2" y2="178.72" style="fill:none;stroke:#263238;stroke-miterlimit:10"></line><line x1="345.8" y1="146.05" x2="341.95" y2="147.99" style="fill:none;stroke:#263238;stroke-miterlimit:10"></line><line x1="219.79" y1="209.44" x2="215.94" y2="211.38" style="fill:none;stroke:#263238;stroke-miterlimit:10"></line><line x1="317.6" y1="116" x2="315.42" y2="119.72" style="fill:none;stroke:#263238;stroke-miterlimit:10"></line><line x1="246.31" y1="237.71" x2="244.13" y2="241.43" style="fill:none;stroke:#263238;stroke-miterlimit:10"></line><line x1="219.79" y1="147.99" x2="215.94" y2="146.05" style="fill:none;stroke:#263238;stroke-miterlimit:10"></line><line x1="345.8" y1="211.38" x2="341.95" y2="209.44" style="fill:none;stroke:#263238;stroke-miterlimit:10"></line><line x1="246.31" y1="119.72" x2="244.13" y2="116" style="fill:none;stroke:#263238;stroke-miterlimit:10"></line><line x1="317.6" y1="241.43" x2="315.42" y2="237.71" style="fill:none;stroke:#263238;stroke-miterlimit:10"></line><line x1="280.87" y1="110.34" x2="280.87" y2="106.05" style="fill:none;stroke:#263238;stroke-miterlimit:10"></line><line x1="280.87" y1="251.39" x2="280.87" y2="247.09" style="fill:none;stroke:#263238;stroke-miterlimit:10"></line><path d="M275.56,125.43v-9.79l-.38.19-.45.19-.46.19-.4.18v-1.88c.11-.07.27-.15.47-.25l.65-.36c.24-.13.45-.27.66-.4a3.49,3.49,0,0,0,.45-.36h2v12.29Z" style="fill:#263238"></path><path d="M280.06,125.43v-1.79l2.95-4.52.63-1a4.78,4.78,0,0,0,.48-1,2.67,2.67,0,0,0,.19-1,1.22,1.22,0,0,0-.21-.79.68.68,0,0,0-.58-.26.82.82,0,0,0-.63.23,1.15,1.15,0,0,0-.31.6,3.76,3.76,0,0,0-.09.85v.61H280v-.65a5.18,5.18,0,0,1,.35-2,2.89,2.89,0,0,1,1.11-1.35,3.6,3.6,0,0,1,2-.5,3.38,3.38,0,0,1,2.5.86,3.27,3.27,0,0,1,.84,2.39,3.85,3.85,0,0,1-.24,1.38,5.75,5.75,0,0,1-.62,1.24c-.26.4-.53.82-.83,1.25l-2.24,3.36h3.59v2Z" style="fill:#263238"></path><path d="M311.14,133.73v-9.79l-.38.18-.45.19-.45.19-.4.18V122.8c.11-.06.26-.15.47-.25l.65-.36c.23-.13.45-.26.65-.4a3.71,3.71,0,0,0,.46-.36h2v12.3Z" style="fill:#263238"></path><path d="M332.05,156.6v-1.79l2.95-4.52.63-1a6.61,6.61,0,0,0,.48-1,2.67,2.67,0,0,0,.19-1,1.22,1.22,0,0,0-.21-.79.69.69,0,0,0-.58-.26.85.85,0,0,0-.64.23,1.23,1.23,0,0,0-.31.6,4.46,4.46,0,0,0-.08.85v.61H332v-.65a5.18,5.18,0,0,1,.35-1.95,2.79,2.79,0,0,1,1.11-1.35,3.58,3.58,0,0,1,2-.5A3.34,3.34,0,0,1,338,145a3.27,3.27,0,0,1,.85,2.39,3.85,3.85,0,0,1-.24,1.38A6.25,6.25,0,0,1,338,150l-.83,1.25-2.25,3.36h3.6v2Z" style="fill:#263238"></path><path d="M343.2,184a3.69,3.69,0,0,1-2-.48,2.7,2.7,0,0,1-1.05-1.36,6.15,6.15,0,0,1-.31-2v-.44h2.54v.44a5.45,5.45,0,0,0,.07,1,.93.93,0,0,0,.28.55.76.76,0,0,0,.54.17.68.68,0,0,0,.52-.18,1,1,0,0,0,.24-.54,5.89,5.89,0,0,0,.06-.92,3,3,0,0,0-.25-1.38,1.09,1.09,0,0,0-1-.5h-.47v-1.74h.41a1.18,1.18,0,0,0,1.08-.44,2.71,2.71,0,0,0,.27-1.37,2.45,2.45,0,0,0-.19-1.09.71.71,0,0,0-.7-.38.65.65,0,0,0-.67.42,3.39,3.39,0,0,0-.15,1.1v.63h-2.54v-.74a4.07,4.07,0,0,1,.4-1.87,2.73,2.73,0,0,1,1.16-1.17,3.86,3.86,0,0,1,1.8-.39,4.11,4.11,0,0,1,1.82.38,2.72,2.72,0,0,1,1.17,1.11,3.81,3.81,0,0,1,.41,1.83,3.4,3.4,0,0,1-.45,1.81,1.82,1.82,0,0,1-1.06.9,2.08,2.08,0,0,1,.77.48,2.21,2.21,0,0,1,.54.9,4.57,4.57,0,0,1,.2,1.45,5.53,5.53,0,0,1-.33,2,2.73,2.73,0,0,1-1.07,1.36A3.51,3.51,0,0,1,343.2,184Z" style="fill:#263238"></path><path d="M336.17,209.76V207h-3.78v-1.86l3.2-7.67h3v7.65h1.14V207h-1.14v2.77Zm-1.85-4.65h1.85V200Z" style="fill:#263238"></path><path d="M311.81,233.91a3.57,3.57,0,0,1-2-.48,2.35,2.35,0,0,1-.93-1.34,7.59,7.59,0,0,1-.24-2H311a6.89,6.89,0,0,0,.08,1.14,1.09,1.09,0,0,0,.28.63.75.75,0,0,0,.58.18.61.61,0,0,0,.56-.32,2.31,2.31,0,0,0,.21-.88c0-.38,0-.83,0-1.37a8.64,8.64,0,0,0-.07-1.08,1.71,1.71,0,0,0-.28-.75.69.69,0,0,0-.61-.28.8.8,0,0,0-.62.27,1.82,1.82,0,0,0-.35.85h-2.19l.23-7.08h5.74v2.12h-3.71l-.13,2.54a1.17,1.17,0,0,1,.58-.38,3.67,3.67,0,0,1,.91-.2,2.24,2.24,0,0,1,1.58.34,2.71,2.71,0,0,1,1,1.36,6.6,6.6,0,0,1,.33,2.23,12.59,12.59,0,0,1-.12,1.81,4,4,0,0,1-.47,1.43,2.36,2.36,0,0,1-1,.93A3.81,3.81,0,0,1,311.81,233.91Z" style="fill:#263238"></path><path d="M282,243.41a3.33,3.33,0,0,1-2-.53,2.94,2.94,0,0,1-1.1-1.43,5.64,5.64,0,0,1-.35-2.08v-4.45a7.4,7.4,0,0,1,.28-2.14,2.73,2.73,0,0,1,1-1.48,3.45,3.45,0,0,1,2.09-.54,4.05,4.05,0,0,1,1.87.37,2.09,2.09,0,0,1,1,1.06,4.6,4.6,0,0,1,.29,1.73.49.49,0,0,0,0,.12v.09h-2.38a4.21,4.21,0,0,0-.11-1.1c-.08-.23-.29-.35-.63-.35a.65.65,0,0,0-.53.21,1.53,1.53,0,0,0-.23.74,14.19,14.19,0,0,0-.06,1.49v1.09a1.22,1.22,0,0,1,.59-.49,2.44,2.44,0,0,1,.93-.19,2.31,2.31,0,0,1,1.55.44,2.62,2.62,0,0,1,.84,1.28,5.8,5.8,0,0,1,.26,1.82,7.8,7.8,0,0,1-.3,2.27,3,3,0,0,1-1,1.52A3.28,3.28,0,0,1,282,243.41Zm0-1.87a.59.59,0,0,0,.51-.23,1.76,1.76,0,0,0,.21-.7c0-.31,0-.69,0-1.15s0-.75,0-1a1.45,1.45,0,0,0-.2-.7.64.64,0,0,0-.56-.25.82.82,0,0,0-.35.08,1,1,0,0,0-.29.19,1.09,1.09,0,0,0-.18.22v2a3.9,3.9,0,0,0,.07.78,1.23,1.23,0,0,0,.25.58A.65.65,0,0,0,282,241.54Z" style="fill:#263238"></path><path d="M247.57,237.3l2.67-10.36h-3.36V225h5.83v1.74L250,237.3Z" style="fill:#263238"></path><path d="M226.11,211.52a3.53,3.53,0,0,1-2-.5,2.66,2.66,0,0,1-1.06-1.36,5.63,5.63,0,0,1-.32-2,5.27,5.27,0,0,1,.1-.89,3.4,3.4,0,0,1,.25-.8,2.56,2.56,0,0,1,.44-.65,2.26,2.26,0,0,1,.63-.47,3.06,3.06,0,0,1-.83-1,3.7,3.7,0,0,1-.4-1.67,3.93,3.93,0,0,1,.35-1.78,2.42,2.42,0,0,1,1.07-1.14,3.61,3.61,0,0,1,1.76-.39,3.56,3.56,0,0,1,1.77.4,2.52,2.52,0,0,1,1.05,1.14,3.87,3.87,0,0,1,.32,1.77,3.64,3.64,0,0,1-.37,1.69,2.67,2.67,0,0,1-.83,1,2.26,2.26,0,0,1,.63.47,2.32,2.32,0,0,1,.44.65,3.41,3.41,0,0,1,.26.8,3.8,3.8,0,0,1,.1.89,5.23,5.23,0,0,1-.3,2,2.73,2.73,0,0,1-1.07,1.36A3.57,3.57,0,0,1,226.11,211.52Zm0-1.87a.64.64,0,0,0,.59-.3,1.84,1.84,0,0,0,.23-.73,6.92,6.92,0,0,0,0-.76,5.4,5.4,0,0,0,0-.91,1.57,1.57,0,0,0-.23-.72.64.64,0,0,0-.59-.28.63.63,0,0,0-.58.28,1.7,1.7,0,0,0-.24.71,8.81,8.81,0,0,0,0,.92,7.42,7.42,0,0,0,0,.77,1.65,1.65,0,0,0,.23.72A.65.65,0,0,0,226.11,209.65Zm0-5.71a.53.53,0,0,0,.42-.2,1.38,1.38,0,0,0,.25-.62,4.78,4.78,0,0,0,.09-1,2.23,2.23,0,0,0-.19-1,.63.63,0,0,0-.57-.37.65.65,0,0,0-.59.37,2.06,2.06,0,0,0-.2,1,4.9,4.9,0,0,0,.08,1,1.32,1.32,0,0,0,.27.63A.57.57,0,0,0,226.11,203.94Z" style="fill:#263238"></path><path d="M217.7,184a4,4,0,0,1-1.86-.36,2.06,2.06,0,0,1-1-1.07,4.46,4.46,0,0,1-.29-1.74v-.2h2.36a3.64,3.64,0,0,0,.13,1.1.61.61,0,0,0,.65.36.64.64,0,0,0,.52-.21,1.64,1.64,0,0,0,.22-.76c0-.35,0-.85,0-1.48v-1.09a1.23,1.23,0,0,1-.6.49,2.82,2.82,0,0,1-.9.19,2.32,2.32,0,0,1-1.57-.48,2.8,2.8,0,0,1-.85-1.35,6.46,6.46,0,0,1-.26-1.85,6.72,6.72,0,0,1,.33-2.23,2.88,2.88,0,0,1,1.07-1.45,3.43,3.43,0,0,1,2-.51,3.55,3.55,0,0,1,2,.48,2.83,2.83,0,0,1,1.09,1.36,5.81,5.81,0,0,1,.34,2.06v4.58a7.4,7.4,0,0,1-.28,2.14,2.8,2.8,0,0,1-1,1.48A3.5,3.5,0,0,1,217.7,184Zm0-6.71a.65.65,0,0,0,.49-.17,2,2,0,0,0,.29-.31v-2a4.75,4.75,0,0,0-.06-.78,1.33,1.33,0,0,0-.23-.58.62.62,0,0,0-.52-.22.57.57,0,0,0-.5.24,1.6,1.6,0,0,0-.22.7c0,.31,0,.69,0,1.14s0,.74,0,1a1.45,1.45,0,0,0,.2.7A.62.62,0,0,0,217.73,177.25Z" style="fill:#263238"></path><path d="M224,156.61v-9.79a3.43,3.43,0,0,1-.38.18l-.44.19-.46.19c-.15.06-.28.13-.4.19v-1.89l.47-.25.65-.35c.23-.13.45-.27.65-.41a2.57,2.57,0,0,0,.46-.35h2v12.29Z" style="fill:#263238"></path><path d="M232.07,156.84a3.52,3.52,0,0,1-1.85-.45,2.89,2.89,0,0,1-1.12-1.23,4.26,4.26,0,0,1-.38-1.84v-5.57a4.62,4.62,0,0,1,.36-1.89,2.67,2.67,0,0,1,1.1-1.27,4.19,4.19,0,0,1,3.78,0,2.78,2.78,0,0,1,1.1,1.27,4.79,4.79,0,0,1,.35,1.89v5.57a4.1,4.1,0,0,1-.38,1.83,2.86,2.86,0,0,1-1.12,1.24A3.51,3.51,0,0,1,232.07,156.84Zm0-2.26a.59.59,0,0,0,.53-.24,1.2,1.2,0,0,0,.19-.54,3.81,3.81,0,0,0,0-.54v-5.45c0-.17,0-.37,0-.59a1.21,1.21,0,0,0-.19-.57.57.57,0,0,0-.54-.25.59.59,0,0,0-.54.25,1.33,1.33,0,0,0-.19.57c0,.22,0,.42,0,.59v5.45a4,4,0,0,0,.05.54,1.35,1.35,0,0,0,.2.54A.58.58,0,0,0,232.07,154.58Z" style="fill:#263238"></path><path d="M248.57,134.13v-9.79l-.38.18-.45.19-.45.19-.4.18V123.2c.11-.06.26-.15.47-.25l.65-.36c.23-.13.45-.27.65-.4a3.71,3.71,0,0,0,.46-.36h2v12.3Z" style="fill:#263238"></path><path d="M254.47,134.13v-9.79l-.37.18-.45.19-.46.19-.4.18V123.2l.47-.25.65-.36c.24-.13.45-.27.65-.4a3.08,3.08,0,0,0,.46-.36h2v12.3Z" style="fill:#263238"></path><path d="M332,73.73s-14.31-7.67-17.1-9.77-1.74-12.56-3.14-18.14S308.22,37.44,296.36,35a91.71,91.71,0,0,0-9.47-1.4l-11.78-.09A88.15,88.15,0,0,0,264.59,35c-11.86,2.44-14,5.24-15.35,10.82s-.35,16-3.14,18.14S229,73.73,229,73.73" style="fill:none;stroke:#263238;stroke-linecap:round;stroke-linejoin:round;stroke-width:2px"></path></g><g id="freepik--clock-1--inject-297"><path d="M226.58,398.37c8.39,6.15,16.95,12.48,22.71,21.13,6.85,10.28,9.1,22.85,11.19,35L264,475a41.65,41.65,0,0,1,.88,9,2.61,2.61,0,0,1-.91,2.21,2.31,2.31,0,0,1-1.58.18,9,9,0,0,1-5.87-4.39,26.83,26.83,0,0,1-2.66-7l-7.35-27q0,9,.1,18.1c0,3.34.8,6.71.94,10.06.06,1.56.41,4.14-.47,5.53-2.64,4.15-8.07-5.85-8.87-7.68a45,45,0,0,1-3.12-11c-1.12-7-.92-14.15-.72-21.25q-2.32,13-4.66,25.91a26,26,0,0,1-1.58,6c-.53,1.17-1.56,2.43-2.83,2.19a2.72,2.72,0,0,1-1.32-.76c-2-1.89-2.86-4.72-3.36-7.44-1.58-8.62-.65-17.49.29-26.2a169.31,169.31,0,0,1-10.33,18.7c-2.45,3.79-4.22.3-4.52-2.53a31.62,31.62,0,0,1,1.48-13.48c1.36-4,3.51-9.61,6.41-12.76a139.45,139.45,0,0,1-11.79,11.4c-1.36,1.17-3.26,2.37-4.8,1.44-1.22-.73-1.43-2.4-1.39-3.82A27.62,27.62,0,0,1,202.8,423c-2.73,2.06-5.72,4.21-9.14,4.26s-7-3.17-6-6.43c.55-1.7,2.11-2.83,3.58-3.84l10.14-7A88.35,88.35,0,0,1,187,414.1c-1.05.21-2.36.29-3-.6a2.28,2.28,0,0,1-.21-1.65c.71-4,5.11-6,8.92-7.27-1.74-.54-3.62-.17-5.42-.41s-3.77-1.55-3.59-3.36a3.14,3.14,0,0,1,2.37-2.48,9.58,9.58,0,0,1,3.62-.06q11.76,1.31,23.59,1.47C217.8,399.81,222.34,399.73,226.58,398.37Z" style="fill:#B8FF5C;stroke:#263238;stroke-miterlimit:10"></path><path d="M238.72,435c.21,3.45.47,6.88.76,10.3s.62,6.84,1,10.25.85,6.81,1.36,10.2,1.1,6.78,1.62,10.2a86.4,86.4,0,0,1-2.69-10c-.39-1.68-.65-3.39-1-5.09s-.51-3.42-.71-5.14c-.4-3.44-.66-6.89-.74-10.35A77.92,77.92,0,0,1,238.72,435Z" style="fill:#263238"></path><path d="M248.36,438.21c1.08,3.27,2,6.57,3,9.88s1.8,6.62,2.67,9.94,1.69,6.65,2.51,10,1.6,6.66,2.59,9.95a69.39,69.39,0,0,1-3.64-9.66c-1-3.28-1.93-6.6-2.81-9.92s-1.65-6.67-2.37-10S248.88,441.62,248.36,438.21Z" style="fill:#263238"></path><path d="M228,433.87c-.57,5.91-1.38,11.76-2,17.62-.35,2.93-.67,5.85-.93,8.79s-.46,5.87-.47,8.84a43.51,43.51,0,0,1-.61-8.9c0-1.49.12-3,.2-4.46s.25-3,.42-4.43c.36-2.95.8-5.89,1.37-8.8S227.18,436.72,228,433.87Z" style="fill:#263238"></path><path d="M221,427.8c-1,2.35-2,4.66-3.07,6.95l-3.21,6.86c-1.1,2.27-2.15,4.56-3.21,6.84s-2.09,4.58-2.95,7a33.59,33.59,0,0,1,1.94-7.38c.87-2.4,1.88-4.73,3-7s2.25-4.55,3.51-6.75A75.69,75.69,0,0,1,221,427.8Z" style="fill:#263238"></path><path d="M214.83,418.81c-1.26,1.44-2.54,2.82-3.81,4.2s-2.54,2.75-3.78,4.15-2.45,2.81-3.64,4.24-2.3,2.94-3.41,4.49a23.09,23.09,0,0,1,2.53-5.13,40.32,40.32,0,0,1,3.48-4.53,47.87,47.87,0,0,1,4.06-4A34,34,0,0,1,214.83,418.81Z" style="fill:#263238"></path><path d="M209.42,411.75a44,44,0,0,1-3.64,2.93c-1.24.92-2.52,1.78-3.81,2.63s-2.6,1.66-3.93,2.45-2.68,1.53-4,2.32a20.77,20.77,0,0,1,3.41-3.22c1.22-1,2.5-1.85,3.79-2.71s2.63-1.65,4-2.39A37.93,37.93,0,0,1,209.42,411.75Z" style="fill:#263238"></path><path d="M203.2,404.59a33.8,33.8,0,0,1-3.52,1.74c-1.19.52-2.38,1-3.59,1.47s-2.42.89-3.63,1.31l-3.69,1.26a13.72,13.72,0,0,1,3.25-2.26,28,28,0,0,1,3.58-1.61,34.42,34.42,0,0,1,3.73-1.19A23.6,23.6,0,0,1,203.2,404.59Z" style="fill:#263238"></path><path d="M214.93,430.57c2.07,1.19,4.53-4.76,4.53-4.76a54.91,54.91,0,0,0-.25,5.8c.06,2.92.3,9.16,3.56,9.51s4.28-12.55,4.28-12.55.63,5,1.81,10.48c3.9,18.39,7.7-6.94,7.7-6.94s2.28,9.82,3.66,13.79c4.34,12.54,5.28-13.42,5.28-13.42s3.82,12.32,5.28,11.15,1.53-6.5,1.53-6.5,6.52,17.39,8.39,18.61l-.22-1.23c-2.09-12.16-4.34-24.73-11.19-35-5.76-8.65-14.32-15-22.71-21.13-4.24,1.36-8.78,1.44-13.23,1.37-.5,0-1,0-1.49,0l-1.16,3.62s-5.77,4.24-5.33,7,8,.66,8,.66-8.55,6.28-7,8.58,9.11-2.91,9.11-2.91a42.19,42.19,0,0,0-2.15,6.37C212.66,426.06,212.86,429.38,214.93,430.57Z" style="fill:#fff;stroke:#263238;stroke-miterlimit:10"></path><path d="M244.24,422.91s-2,4.2-3.29,3.65-1.36-6.63-1.36-6.63-3.58,6.38-6.06,5-.64-8.21-.64-8.21-4.52,2.27-6.27.57.31-5.49.31-5.49-4.92.86-6-1.05,2.08-5.3,2.08-5.3" style="fill:#fff;stroke:#263238;stroke-miterlimit:10"></path><path d="M110.56,362.81c-10.33-1.14-20.92-2.26-31,.23-12,2.95-22.14,10.69-31.91,18.24L31.19,394a41.47,41.47,0,0,0-6.76,6.06,2.62,2.62,0,0,0-.82,2.24,2.27,2.27,0,0,0,1.05,1.2,9,9,0,0,0,7.29.73,26.69,26.69,0,0,0,6.72-3.39l23.67-14.95L50,399.17c-2.27,2.45-5.13,4.4-7.49,6.78-1.1,1.1-3.1,2.77-3.39,4.39-.86,4.84,9.9,1.14,11.73.33a44.92,44.92,0,0,0,9.71-6c5.56-4.42,10.24-9.82,14.89-15.18L61.42,411.75a25.69,25.69,0,0,0-2.86,5.47c-.41,1.23-.49,2.85.6,3.54a2.81,2.81,0,0,0,1.49.32c2.77,0,5.29-1.54,7.5-3.21,7-5.29,12.29-12.46,17.49-19.52a170.67,170.67,0,0,0-5,20.77c-.76,4.45,2.9,3.08,5,1.2a31.57,31.57,0,0,0,8-10.95c1.7-3.86,3.9-9.45,3.9-13.73a137.61,137.61,0,0,0,1,16.36c.21,1.78.81,4,2.57,4.32,1.39.28,2.68-.81,3.61-1.89a27.62,27.62,0,0,0,6.71-17.4c.62,3.37,1.37,7,3.86,9.32s7.33,2.41,8.76-.7c.74-1.62.35-3.51,0-5.25q-1.38-6-2.77-12a88.26,88.26,0,0,0,7.84,12.71c.63.86,1.55,1.81,2.59,1.55A2.24,2.24,0,0,0,133,401.6c2.16-3.4.25-7.83-1.66-11.38,1.64.77,2.78,2.32,4.26,3.36s3.83,1.4,4.92-.05a3.14,3.14,0,0,0-.07-3.43,9.47,9.47,0,0,0-2.63-2.49q-9.54-7-18.38-14.85C116.06,369.79,112.77,366.68,110.56,362.81Z" style="fill:#B8FF5C;stroke:#263238;stroke-miterlimit:10"></path><path d="M76.85,381.61c-2.48,2.41-5,4.76-7.51,7.08s-5.08,4.63-7.7,6.85-5.22,4.45-7.89,6.61-5.39,4.26-8.09,6.43A88.63,88.63,0,0,0,54.41,403c1.42-1,2.77-2.06,4.15-3.11s2.69-2.17,4-3.31q3.93-3.39,7.54-7.12A76.72,76.72,0,0,0,76.85,381.61Z" style="fill:#263238"></path><path d="M67.58,377.45c-3,1.69-5.93,3.47-8.85,5.29s-5.8,3.67-8.68,5.52-5.74,3.76-8.6,5.66-5.68,3.83-8.63,5.59A68.55,68.55,0,0,0,42,394.85c3-1.72,5.88-3.56,8.78-5.42s5.72-3.8,8.52-5.79S64.9,379.62,67.58,377.45Z" style="fill:#263238"></path><path d="M85.51,388c-3.58,4.74-6.93,9.6-10.4,14.36q-2.58,3.6-5.26,7.11c-1.8,2.32-3.62,4.64-5.62,6.83a43.13,43.13,0,0,0,6.46-6.14c1-1.1,1.92-2.27,2.86-3.42s1.82-2.36,2.69-3.56c1.73-2.41,3.39-4.88,4.93-7.41A88,88,0,0,0,85.51,388Z" style="fill:#263238"></path><path d="M94.78,388.25c-.88,2.39-1.67,4.8-2.44,7.2l-2.26,7.23c-.73,2.42-1.5,4.81-2.26,7.21s-1.55,4.79-2.54,7.13a32.5,32.5,0,0,0,3.56-6.75c1-2.35,1.81-4.75,2.57-7.18s1.41-4.87,2-7.35A75.39,75.39,0,0,0,94.78,388.25Z" style="fill:#263238"></path><path d="M105.41,385.82c0,1.9,0,3.78,0,5.66s0,3.75,0,5.61-.09,3.73-.18,5.59-.3,3.72-.52,5.62a23.36,23.36,0,0,0,1.6-5.49,40.48,40.48,0,0,0,.49-5.7,47,47,0,0,0-.29-5.69A32.35,32.35,0,0,0,105.41,385.82Z" style="fill:#263238"></path><path d="M114.17,384.26a41.5,41.5,0,0,0,.71,4.62c.29,1.52.65,3,1,4.52s.8,3,1.25,4.46.94,2.93,1.4,4.43a20.92,20.92,0,0,0-.34-4.68c-.24-1.54-.59-3.05-1-4.56s-.82-3-1.33-4.46A35,35,0,0,0,114.17,384.26Z" style="fill:#263238"></path><path d="M123.6,383.19a32.2,32.2,0,0,0,1.41,3.66c.53,1.18,1.08,2.35,1.66,3.5s1.18,2.29,1.8,3.43l1.86,3.42a13.62,13.62,0,0,0-.87-3.86,28.84,28.84,0,0,0-1.55-3.61,34.72,34.72,0,0,0-2-3.4A24.53,24.53,0,0,0,123.6,383.19Z" style="fill:#263238"></path><path d="M97.4,394.42c-2.34-.52-.14-6.58-.14-6.58a51.79,51.79,0,0,1-3.73,4.45c-2,2.11-6.41,6.55-9,4.6s5.33-12.14,5.33-12.14S86,388,81.39,391.26c-15.3,10.91-1-10.33-1-10.33s-8.31,5.7-12,7.7c-11.68,6.31,5.17-13.46,5.17-13.46s-11.15,6.5-11.43,4.64S65.41,374,65.41,374s-16.56,8.41-18.76,8c.33-.25.66-.5,1-.76C57.4,373.73,67.55,366,79.54,363c10.1-2.49,20.69-1.37,31-.23,2.21,3.87,5.5,7,8.83,9.95l1.13,1-1.59,3.45s1.38,7-.81,8.76-6.33-4.91-6.33-4.91,2.06,10.4-.67,11-4.74-8.3-4.74-8.3a42.57,42.57,0,0,1-2.72,6.15C102.12,392.62,99.73,394.94,97.4,394.42Z" style="fill:#fff;stroke:#263238;stroke-miterlimit:10"></path><path d="M81,369s-1.39,4.43,0,4.92,5.48-4,5.48-4-1.67,7.12,1.08,7.78,6-5.62,6-5.62,1.79,4.74,4.23,4.66,3.48-4.25,3.48-4.25,3,3.95,5.11,3.25,2-5.31,2-5.31" style="fill:#fff;stroke:#263238;stroke-miterlimit:10"></path><path d="M119.45,425.2l-14.78,13.38a1.17,1.17,0,0,0,.33,1.94h0a1.17,1.17,0,0,0,1.06-.08l16.47-10Z" style="fill:#B8FF5C;stroke:#263238;stroke-miterlimit:10"></path><path d="M173.26,447.73l.84,19.91a1.17,1.17,0,0,1-1.62,1.13h0a1.14,1.14,0,0,1-.68-.81l-4.44-18.74Z" style="fill:#B8FF5C;stroke:#263238;stroke-miterlimit:10"></path><rect x="162.4" y="306.51" width="2.68" height="23.6" transform="translate(-17.25 9.48) rotate(-3.15)" style="fill:#263238;stroke:#263238;stroke-miterlimit:10"></rect><path d="M186.4,324.73l-44.22,2.44-.64-9.27a6.52,6.52,0,0,1,6.15-6.87l31.2-1.72a6.53,6.53,0,0,1,6.87,6.16Z" style="fill:#B8FF5C;stroke:#263238;stroke-miterlimit:10"></path><rect x="216.25" y="329.05" width="2.68" height="23.6" transform="translate(105.91 729.51) rotate(-131.42)" style="fill:#263238;stroke:#263238;stroke-miterlimit:10"></rect><path d="M197.86,329.07l29.3,33.21,6.29-5.9a6.51,6.51,0,0,0,.58-9.2l-20.67-23.43a6.52,6.52,0,0,0-9.2-.58Z" style="fill:#B8FF5C;stroke:#263238;stroke-miterlimit:10"></path><rect x="190.35" y="324.24" width="0.99" height="12.2" transform="translate(142.38 -48.07) rotate(22.72)" style="fill:#263238;stroke:#263238;stroke-miterlimit:10"></rect><path d="M194.72,326.05,191,324.48a1.7,1.7,0,0,1-.91-2.24h0a1.7,1.7,0,0,1,2.24-.91l3.75,1.57a1.7,1.7,0,0,1,.91,2.24h0A1.7,1.7,0,0,1,194.72,326.05Z" style="fill:#263238;stroke:#263238;stroke-miterlimit:10"></path><circle cx="165.67" cy="390.18" r="60.73" transform="translate(-257.12 420.71) rotate(-71.12)" style="fill:#263238;stroke:#263238;stroke-miterlimit:10"></circle><circle cx="166.37" cy="389.89" r="52.36" transform="translate(-226.97 231.84) rotate(-45)" style="fill:#fff;stroke:#263238;stroke-miterlimit:10"></circle><circle cx="165.67" cy="390.18" r="51.83" style="fill:#fff;stroke:#263238;stroke-miterlimit:10"></circle><polygon points="163.89 391.24 138.65 391.9 163.6 389.58 163.89 391.24" style="fill:#B8FF5C;stroke:#263238;stroke-miterlimit:10"></polygon><polygon points="167.14 391.19 191.55 425.05 164.57 391.37 167.14 391.19" style="fill:#B8FF5C;stroke:#263238;stroke-miterlimit:10"></polygon><path d="M167.75,391.05a2.25,2.25,0,1,1-1.21-2.94A2.26,2.26,0,0,1,167.75,391.05Z" style="fill:#263238;stroke:#263238;stroke-miterlimit:10"></path><line x1="212.42" y1="409.75" x2="209.65" y2="408.6" style="fill:none;stroke:#263238;stroke-miterlimit:10"></line><line x1="121.7" y1="371.77" x2="118.93" y2="370.61" style="fill:none;stroke:#263238;stroke-miterlimit:10"></line><line x1="216.24" y1="386.65" x2="213.24" y2="386.87" style="fill:none;stroke:#263238;stroke-miterlimit:10"></line><line x1="118.11" y1="393.5" x2="115.11" y2="393.71" style="fill:none;stroke:#263238;stroke-miterlimit:10"></line><line x1="206.19" y1="359.73" x2="203.79" y2="361.54" style="fill:none;stroke:#263238;stroke-miterlimit:10"></line><line x1="127.56" y1="418.82" x2="125.15" y2="420.63" style="fill:none;stroke:#263238;stroke-miterlimit:10"></line><line x1="134.66" y1="353.97" x2="132.71" y2="351.68" style="fill:none;stroke:#263238;stroke-miterlimit:10"></line><line x1="198.64" y1="428.68" x2="196.69" y2="426.39" style="fill:none;stroke:#263238;stroke-miterlimit:10"></line><line x1="159.33" y1="342.93" x2="158.93" y2="339.95" style="fill:none;stroke:#263238;stroke-miterlimit:10"></line><line x1="172.41" y1="440.41" x2="172.01" y2="437.43" style="fill:none;stroke:#263238;stroke-miterlimit:10"></line><line x1="184.09" y1="346.2" x2="185.24" y2="343.44" style="fill:none;stroke:#263238;stroke-miterlimit:10"></line><line x1="146.1" y1="436.93" x2="147.26" y2="434.16" style="fill:none;stroke:#263238;stroke-miterlimit:10"></line><path d="M176.61,354.47l2.63-6.29H178l.51-1.21.37,0,.51-.06.53-.08a1.72,1.72,0,0,0,.39-.11l1.28.54-3.31,7.91Z" style="fill:#263238"></path><path d="M179.51,355.69l.48-1.15,3.11-2.12.67-.46a3.81,3.81,0,0,0,.57-.48,2,2,0,0,0,.39-.6.88.88,0,0,0,.08-.57.53.53,0,0,0-.3-.32.6.6,0,0,0-.47,0,.8.8,0,0,0-.37.3,2.62,2.62,0,0,0-.28.53l-.16.39-1.59-.67.18-.42a3.87,3.87,0,0,1,.75-1.16,2,2,0,0,1,1.08-.57,2.56,2.56,0,0,1,1.41.22,2.32,2.32,0,0,1,1.37,1.23,2.23,2.23,0,0,1-.1,1.76,2.92,2.92,0,0,1-.52.83,4.06,4.06,0,0,1-.74.62c-.27.19-.56.39-.87.59l-2.34,1.55,2.31,1-.53,1.28Z" style="fill:#263238"></path><path d="M197.26,369.39l2.64-6.3-.29,0h-1l.51-1.21.37,0,.52-.05.53-.08a2.64,2.64,0,0,0,.38-.11l1.28.54-3.31,7.9Z" style="fill:#263238"></path><path d="M204.55,389.74l.48-1.15,3.12-2.12.66-.46a3.81,3.81,0,0,0,.57-.48,2,2,0,0,0,.4-.6,1,1,0,0,0,.08-.57.52.52,0,0,0-.31-.32.6.6,0,0,0-.47,0,.73.73,0,0,0-.36.3,2.2,2.2,0,0,0-.28.53l-.17.39-1.58-.67.18-.42a3.52,3.52,0,0,1,.75-1.16,2,2,0,0,1,1.07-.57,2.54,2.54,0,0,1,1.41.22,2.37,2.37,0,0,1,1.38,1.23,2.28,2.28,0,0,1-.1,1.76,3,3,0,0,1-.53.83,4,4,0,0,1-.73.62c-.27.19-.56.39-.87.59l-2.35,1.55,2.32,1-.54,1.28Z" style="fill:#263238"></path><path d="M204.35,410.35a2.45,2.45,0,0,1-1.17-.86,1.77,1.77,0,0,1-.31-1.15,4,4,0,0,1,.34-1.38l.12-.28,1.63.68-.05.11-.07.17a3.89,3.89,0,0,0-.22.66.75.75,0,0,0,0,.43.56.56,0,0,0,.3.26.49.49,0,0,0,.39,0,.69.69,0,0,0,.3-.29,3.79,3.79,0,0,0,.28-.57,1.94,1.94,0,0,0,.21-1c0-.25-.2-.45-.53-.6l-.11,0-.19-.08.47-1.12.13,0,.13.06a.82.82,0,0,0,.81,0,1.82,1.82,0,0,0,.55-.8,2,2,0,0,0,.17-.76.51.51,0,0,0-.35-.43.43.43,0,0,0-.54.1,2,2,0,0,0-.4.66l-.08.2-.09.21-1.63-.69.2-.48a2.75,2.75,0,0,1,.76-1.09,1.89,1.89,0,0,1,1.06-.44,2.69,2.69,0,0,1,1.26.23,2.87,2.87,0,0,1,1.07.74,1.79,1.79,0,0,1,.45,1,2.61,2.61,0,0,1-.23,1.29,2.41,2.41,0,0,1-.77,1,1.29,1.29,0,0,1-.92.29,1.51,1.51,0,0,1,.36.52,1.48,1.48,0,0,1,.1.72,2.91,2.91,0,0,1-.26,1,3.79,3.79,0,0,1-.75,1.19,1.91,1.91,0,0,1-1.05.59A2.52,2.52,0,0,1,204.35,410.35Z" style="fill:#263238"></path><path d="M192.89,425l.74-1.78-2.43-1,.5-1.2,4.13-4.07,1.89.8-2.06,4.92.73.3-.5,1.21-.74-.3-.74,1.77Zm.06-3.49,1.19.5,1.38-3.29Z" style="fill:#263238"></path><path d="M170.72,434a2.56,2.56,0,0,1-1.19-.85,1.65,1.65,0,0,1-.24-1.12,5.28,5.28,0,0,1,.39-1.35l1.57.65a4.58,4.58,0,0,0-.26.76.84.84,0,0,0,0,.48.57.57,0,0,0,.33.27.45.45,0,0,0,.45-.06,1.54,1.54,0,0,0,.37-.5c.11-.24.25-.53.39-.88a5.57,5.57,0,0,0,.25-.71,1.16,1.16,0,0,0,0-.55.47.47,0,0,0-.32-.35.52.52,0,0,0-.47,0,1.19,1.19,0,0,0-.45.45l-1.41-.59,2.05-4.5,3.7,1.55-.58,1.37-2.38-1-.77,1.59a.86.86,0,0,1,.47-.08,2.39,2.39,0,0,1,.64.11,1.58,1.58,0,0,1,.93.65,1.86,1.86,0,0,1,.26,1.13,4.53,4.53,0,0,1-.39,1.53,9.14,9.14,0,0,1-.57,1.13,2.82,2.82,0,0,1-.68.79,1.6,1.6,0,0,1-.91.33A2.67,2.67,0,0,1,170.72,434Z" style="fill:#263238"></path><path d="M149,432.09a2.35,2.35,0,0,1-1.12-.86,2.13,2.13,0,0,1-.32-1.22,4,4,0,0,1,.34-1.43l1.19-2.86a5.44,5.44,0,0,1,.76-1.31,2,2,0,0,1,1.05-.68,2.46,2.46,0,0,1,1.49.22,2.67,2.67,0,0,1,1.1.74,1.43,1.43,0,0,1,.34.94,3.09,3.09,0,0,1-.28,1.2.19.19,0,0,0,0,.07l0,.07-1.53-.65a2.54,2.54,0,0,0,.22-.73c0-.18-.08-.31-.3-.4a.44.44,0,0,0-.4,0,1,1,0,0,0-.35.42,8.9,8.9,0,0,0-.44.94l-.29.7a.82.82,0,0,1,.51-.16,1.75,1.75,0,0,1,.65.13,1.63,1.63,0,0,1,.88.7,1.84,1.84,0,0,1,.19,1,4,4,0,0,1-.32,1.24,5.63,5.63,0,0,1-.8,1.38,2.07,2.07,0,0,1-1.08.7A2.25,2.25,0,0,1,149,432.09Zm.52-1.19a.41.41,0,0,0,.39,0,1,1,0,0,0,.32-.39c.11-.19.22-.43.35-.72a6.72,6.72,0,0,0,.25-.69,1,1,0,0,0,.06-.5.46.46,0,0,0-.3-.31.49.49,0,0,0-.24,0,.61.61,0,0,0-.24,0l-.17.09-.54,1.29a2.86,2.86,0,0,0-.17.52.92.92,0,0,0,0,.44A.45.45,0,0,0,149.49,430.9Z" style="fill:#263238"></path><path d="M128.48,418.9,133,413l-2.16-.91.52-1.24,3.75,1.57-.47,1.13-4.56,6.06Z" style="fill:#263238"></path><path d="M121.62,396.53a2.46,2.46,0,0,1-1.15-.85,1.92,1.92,0,0,1-.32-1.17,4.1,4.1,0,0,1,.34-1.37,3.55,3.55,0,0,1,.3-.54,2.38,2.38,0,0,1,.38-.45,1.65,1.65,0,0,1,.46-.3,1.59,1.59,0,0,1,.53-.13,2,2,0,0,1-.26-.87,2.53,2.53,0,0,1,.19-1.19,2.84,2.84,0,0,1,.7-1.05,1.78,1.78,0,0,1,1-.44,2.46,2.46,0,0,1,1.23.22,2.41,2.41,0,0,1,1,.73,1.8,1.8,0,0,1,.38,1,2.76,2.76,0,0,1-.28,1.22,2.55,2.55,0,0,1-.69,1,1.88,1.88,0,0,1-.8.42,1.58,1.58,0,0,1,.28.46,1.92,1.92,0,0,1,.11.54,2.39,2.39,0,0,1,0,.59,3.42,3.42,0,0,1-.18.6,3.63,3.63,0,0,1-.73,1.2,1.89,1.89,0,0,1-1,.59A2.52,2.52,0,0,1,121.62,396.53Zm.5-1.2a.44.44,0,0,0,.46,0,1.13,1.13,0,0,0,.34-.4,3.57,3.57,0,0,0,.24-.48,4.84,4.84,0,0,0,.22-.6,1.19,1.19,0,0,0,0-.52.52.52,0,0,0-.75-.32,1.14,1.14,0,0,0-.34.4,5,5,0,0,0-.29.57,4.35,4.35,0,0,0-.17.51,1.1,1.1,0,0,0-.05.53A.46.46,0,0,0,122.12,395.33Zm1.54-3.67a.36.36,0,0,0,.32,0,1,1,0,0,0,.33-.33,3.61,3.61,0,0,0,.33-.63,1.49,1.49,0,0,0,.14-.69.4.4,0,0,0-.27-.38.43.43,0,0,0-.47.07,1.43,1.43,0,0,0-.39.57,3.89,3.89,0,0,0-.23.68,1.07,1.07,0,0,0,0,.48A.41.41,0,0,0,123.66,391.66Z" style="fill:#263238"></path><path d="M123.63,376.54a2.74,2.74,0,0,1-1.1-.74,1.42,1.42,0,0,1-.34-.95,3.23,3.23,0,0,1,.28-1.19l0-.06,0-.07,1.52.64a2.58,2.58,0,0,0-.21.74c0,.18.1.31.32.41a.44.44,0,0,0,.39,0,1.08,1.08,0,0,0,.34-.43c.12-.22.26-.53.43-.93l.3-.71a.91.91,0,0,1-.52.15,2.09,2.09,0,0,1-.63-.11,1.6,1.6,0,0,1-.88-.74,2,2,0,0,1-.18-1.09,4.36,4.36,0,0,1,.33-1.26,4.56,4.56,0,0,1,.81-1.35,2,2,0,0,1,1.08-.64,2.37,2.37,0,0,1,1.41.2,2.54,2.54,0,0,1,1.13.84,2,2,0,0,1,.33,1.16,3.8,3.8,0,0,1-.34,1.42l-1.23,2.95a5.37,5.37,0,0,1-.76,1.3,2,2,0,0,1-1,.68A2.39,2.39,0,0,1,123.63,376.54Zm1.83-4.31a.46.46,0,0,0,.36,0,1.69,1.69,0,0,0,.27-.13l.54-1.29a3.93,3.93,0,0,0,.17-.52.9.9,0,0,0,0-.43.46.46,0,0,0-.28-.28.37.37,0,0,0-.38,0,.94.94,0,0,0-.33.39,5.53,5.53,0,0,0-.34.72,6.1,6.1,0,0,0-.26.68,1.17,1.17,0,0,0-.06.5A.44.44,0,0,0,125.46,372.23Z" style="fill:#263238"></path><path d="M135.06,360.65l2.63-6.3-.29,0h-1l.5-1.21.37,0,.52-.05a4.18,4.18,0,0,0,.53-.09,1.8,1.8,0,0,0,.39-.1l1.28.53-3.31,7.91Z" style="fill:#263238"></path><path d="M140.18,363a2.5,2.5,0,0,1-1.07-.79,2,2,0,0,1-.39-1.1,2.89,2.89,0,0,1,.25-1.28l1.5-3.59a3.27,3.27,0,0,1,.74-1.12,1.93,1.93,0,0,1,1-.51,2.83,2.83,0,0,1,2.43,1,1.8,1.8,0,0,1,.36,1.11,3.13,3.13,0,0,1-.28,1.31l-1.5,3.58a2.9,2.9,0,0,1-.73,1.07,2,2,0,0,1-1.06.5A2.47,2.47,0,0,1,140.18,363Zm.61-1.46a.4.4,0,0,0,.4,0,.79.79,0,0,0,.27-.3,3.53,3.53,0,0,0,.17-.33l1.47-3.51.14-.38a1.06,1.06,0,0,0,0-.43.42.42,0,0,0-.28-.3.42.42,0,0,0-.41,0,.87.87,0,0,0-.28.32l-.18.37-1.47,3.51a2.66,2.66,0,0,0-.11.36.91.91,0,0,0,0,.4A.41.41,0,0,0,140.79,361.51Z" style="fill:#263238"></path><path d="M156.91,352.8l2.63-6.3-.29,0h-1l.51-1.21.37,0,.51,0c.19,0,.36-.05.53-.09a2.67,2.67,0,0,0,.39-.1l1.28.53-3.31,7.91Z" style="fill:#263238"></path><path d="M160.7,354.39l2.64-6.3-.29,0h-1l.5-1.21.37,0,.52-.05c.18,0,.36-.05.53-.09a3.06,3.06,0,0,0,.39-.1l1.28.53-3.31,7.91Z" style="fill:#263238"></path><path d="M226.8,336.4s-7.13-8.79-8.36-10.88S220.7,317,221.3,313s0-6.33-7-11.09a61.14,61.14,0,0,0-5.71-3.45l-7.55-3.24a63.45,63.45,0,0,0-7.17-1.87c-8.29-1.62-10.39-.39-12.79,2.82s-4.55,10.24-6.91,10.83-13.63,1.68-13.63,1.68" style="fill:none;stroke:#263238;stroke-linecap:round;stroke-linejoin:round;stroke-width:2px"></path></g></svg>
